<svg width="512" height="512" viewBox="0 0 512 512" fill="none" xmlns="http://www.w3.org/2000/svg">
<g clip-path="url(#clip0_249_192)">
<path d="M511.019 118.229L331.435 297.814C311.411 317.787 284.283 329.004 256 329.004C227.717 329.004 200.589 317.787 180.565 297.814L0.981333 118.229C0.682667 121.6 0 124.651 0 128V384C0.0338743 412.28 11.2828 439.391 31.2794 459.388C51.2759 479.384 78.3873 490.633 106.667 490.667H405.333C433.613 490.633 460.724 479.384 480.721 459.388C500.717 439.391 511.966 412.28 512 384V128C512 124.651 511.317 121.6 511.019 118.229Z" fill="white"/>
<path d="M301.269 267.648L496.128 72.7679C486.689 57.1161 473.375 44.1607 457.472 35.1515C441.568 26.1423 423.611 21.3832 405.333 21.3333H106.667C88.3888 21.3832 70.4321 26.1423 54.5286 35.1515C38.6252 44.1607 25.3116 57.1161 15.8721 72.7679L210.731 267.648C222.754 279.623 239.031 286.346 256 286.346C272.969 286.346 289.247 279.623 301.269 267.648Z" fill="white"/>
</g>
<defs>
<clipPath id="clip0_249_192">
<rect width="512" height="512" fill="white"/>
</clipPath>
</defs>
</svg>
