<svg width="512" height="512" viewBox="0 0 512 512" fill="none" xmlns="http://www.w3.org/2000/svg">
<g clip-path="url(#clip0_255_168)">
<circle cx="256" cy="256" r="224" fill="#A73938"/>
<g filter="url(#filter0_d_255_168)">
<path d="M339.793 113.857H173.314C157.55 113.876 142.438 120.146 131.292 131.292C120.146 142.438 113.876 157.55 113.857 173.313V339.792C113.876 355.556 120.146 370.668 131.292 381.814C142.438 392.96 157.55 399.23 173.314 399.249H339.793C355.556 399.23 370.668 392.96 381.814 381.814C392.96 370.668 399.231 355.556 399.249 339.792V173.313C399.231 157.55 392.96 142.438 381.814 131.292C370.668 120.146 355.556 113.876 339.793 113.857ZM351.684 244.662H375.467V268.444H351.684V244.662ZM351.684 220.879V197.096H375.467V220.879H351.684ZM161.422 268.444H137.64V244.662H161.422V268.444ZM184.598 268.444V244.662H327.295V268.444H184.598ZM161.422 220.879H137.64V197.096H161.422V220.879ZM137.64 292.227H161.422V316.01H137.64V292.227ZM351.684 292.227H375.467V316.01H351.684V292.227ZM375.467 173.313H351.684V139.827C358.616 142.278 364.621 146.81 368.878 152.804C373.135 158.799 375.436 165.962 375.467 173.313ZM161.422 139.827V173.313H137.64C137.67 165.962 139.971 158.799 144.228 152.804C148.486 146.81 154.491 142.278 161.422 139.827ZM137.64 339.792H161.422V373.279C154.491 370.828 148.486 366.296 144.228 360.301C139.971 354.307 137.67 347.144 137.64 339.792ZM351.684 373.279V339.792H375.467C375.436 347.144 373.135 354.307 368.878 360.301C364.621 366.296 358.616 370.828 351.684 373.279Z" fill="white"/>
</g>
</g>
<defs>
<filter id="filter0_d_255_168" x="109.857" y="113.857" width="293.393" height="293.393" filterUnits="userSpaceOnUse" color-interpolation-filters="sRGB">
<feFlood flood-opacity="0" result="BackgroundImageFix"/>
<feColorMatrix in="SourceAlpha" type="matrix" values="0 0 0 0 0 0 0 0 0 0 0 0 0 0 0 0 0 0 127 0" result="hardAlpha"/>
<feOffset dy="4"/>
<feGaussianBlur stdDeviation="2"/>
<feComposite in2="hardAlpha" operator="out"/>
<feColorMatrix type="matrix" values="0 0 0 0 0 0 0 0 0 0 0 0 0 0 0 0 0 0 0.25 0"/>
<feBlend mode="normal" in2="BackgroundImageFix" result="effect1_dropShadow_255_168"/>
<feBlend mode="normal" in="SourceGraphic" in2="effect1_dropShadow_255_168" result="shape"/>
</filter>
<clipPath id="clip0_255_168">
<rect width="512" height="512" fill="white"/>
</clipPath>
</defs>
</svg>
