<svg width="512" height="512" viewBox="0 0 512 512" fill="none" xmlns="http://www.w3.org/2000/svg">
<g clip-path="url(#clip0_246_170)">
<path d="M320 333.333C320 309.287 310.447 286.226 293.444 269.222C276.441 252.219 253.379 242.667 229.333 242.667C205.287 242.667 182.225 252.219 165.222 269.222C148.219 286.226 138.667 309.287 138.667 333.333V341.333H202.667V333.333C202.667 326.261 205.476 319.478 210.477 314.477C215.478 309.476 222.261 306.667 229.333 306.667C236.406 306.667 243.188 309.476 248.189 314.477C253.19 319.478 256 326.261 256 333.333C256 346.667 230.571 365.739 210.133 381.056C176.64 406.187 138.667 434.667 138.667 480C138.667 488.487 142.038 496.626 148.039 502.627C154.04 508.629 162.18 512 170.667 512H320V448H228.267C234.88 442.581 242.027 437.333 248.64 432.277C282.027 407.147 320 378.667 320 333.333Z" fill="#A73938"/>
<path d="M448 256V362.667H432C424.931 362.655 418.155 359.842 413.156 354.844C408.158 349.845 405.345 343.069 405.333 336V256H341.333V336C341.362 360.038 350.923 383.083 367.92 400.08C384.918 417.077 407.963 426.638 432 426.667H448V512H512V256H448Z" fill="#A73938"/>
<path d="M436.715 75.2853C392.389 30.7011 333.184 4.02208 270.422 0.351078C207.661 -3.31993 145.749 16.2748 96.5281 55.3873C47.3074 94.4999 14.2328 150.385 3.63067 212.353C-6.97148 274.322 5.64295 338.023 39.0612 391.275L85.8239 344.491C70.5306 315.253 63.0446 282.562 64.0904 249.583C65.1363 216.604 74.6787 184.454 91.7938 156.244C108.909 128.034 133.017 104.72 161.784 88.5602C190.552 72.4 223.004 63.9402 256 64C306.863 64.1776 355.589 84.4792 391.531 120.469L341.333 170.667H467.392C470.449 170.669 473.477 170.069 476.302 168.901C479.127 167.732 481.694 166.018 483.856 163.856C486.018 161.694 487.732 159.127 488.901 156.302C490.069 153.477 490.669 150.449 490.667 147.392V21.3333L436.715 75.2853Z" fill="#A73938"/>
</g>
<defs>
<clipPath id="clip0_246_170">
<rect width="512" height="512" fill="white"/>
</clipPath>
</defs>
</svg>
