<svg width="512" height="512" viewBox="0 0 512 512" fill="none" xmlns="http://www.w3.org/2000/svg">
<g clip-path="url(#clip0_246_176)">
<path d="M85.3333 234.667C38.1867 234.667 0 272.853 0 320V426.667C0 473.813 38.1867 512 85.3333 512H176.213C235.947 512 293.12 486.827 333.44 442.667L497.707 263.253C517.973 240.64 516.053 205.44 493.653 185.173C482.773 175.147 468.267 170.027 453.547 170.667C438.613 171.307 424.96 177.707 415.36 188.373L339.84 268.16C340.48 272.64 341.12 277.12 341.12 281.813C341.12 326.187 308.053 364.587 263.893 370.773L173.227 383.573C161.493 385.28 150.827 377.173 149.12 365.44C147.413 353.707 155.52 343.04 167.253 341.333L256 328.96C276.053 326.187 293.333 311.68 297.387 292.053C303.787 261.547 280.533 234.667 251.307 234.667H85.3333Z" fill="#A73938"/>
<path d="M354.963 102.187L284.777 90.4533C278.377 89.3866 273.683 83.84 273.683 77.2266C273.683 69.9733 279.657 64 286.91 64H343.23C350.91 64 357.95 68.0533 361.79 74.6666C367.763 84.9066 380.777 88.32 391.017 82.3466C401.257 76.3733 404.67 63.36 398.91 53.12C387.39 33.4933 366.27 21.12 343.443 21.12H337.683C337.683 9.38662 328.083 -0.213379 316.35 -0.213379C304.617 -0.213379 295.017 9.38662 295.017 21.12H286.91C255.977 21.12 231.017 46.2933 231.017 77.0133C231.017 104.533 250.643 127.787 277.737 132.267L347.923 144C354.323 145.067 359.017 150.613 359.017 157.227C359.017 164.48 353.043 170.453 345.79 170.453H289.47C281.79 170.453 274.75 166.4 270.91 159.787C264.937 149.547 251.923 146.133 241.683 152.107C231.443 158.08 228.03 171.093 233.79 181.333C245.31 200.96 266.43 213.333 289.257 213.333H295.017C295.017 225.067 304.617 234.667 316.35 234.667C328.083 234.667 337.683 225.067 337.683 213.333H345.79C376.723 213.333 401.683 188.16 401.683 157.44C401.683 129.92 382.057 106.667 354.963 102.187Z" fill="#A73938"/>
</g>
<defs>
<clipPath id="clip0_246_176">
<rect width="512" height="512" fill="white"/>
</clipPath>
</defs>
</svg>
