<svg width="512" height="512" viewBox="0 0 512 512" fill="none" xmlns="http://www.w3.org/2000/svg">
<g clip-path="url(#clip0_246_174)">
<path d="M396.395 45.6533L262.741 1.08801C258.365 -0.369506 253.635 -0.369506 249.259 1.08801L115.605 45.6533C94.3552 52.7121 75.8701 66.2882 62.7763 84.4525C49.6825 102.617 42.646 124.446 42.6665 146.837V256C42.6665 417.344 238.933 506.453 247.339 510.165C250.065 511.377 253.016 512.003 256 512.003C258.984 512.003 261.934 511.377 264.661 510.165C273.067 506.453 469.333 417.344 469.333 256V146.837C469.354 124.446 462.317 102.617 449.223 84.4525C436.13 66.2882 417.645 52.7121 396.395 45.6533ZM356.651 207.296L265.515 298.432C261.785 302.186 257.347 305.163 252.458 307.188C247.569 309.213 242.326 310.247 237.035 310.229H236.331C230.931 310.147 225.604 308.97 220.672 306.77C215.74 304.57 211.306 301.392 207.637 297.429L158.443 246.229C156.312 244.253 154.608 241.861 153.435 239.203C152.261 236.544 151.644 233.673 151.62 230.767C151.596 227.861 152.166 224.98 153.295 222.302C154.424 219.624 156.088 217.205 158.186 215.194C160.283 213.182 162.77 211.62 165.493 210.604C168.216 209.588 171.117 209.138 174.02 209.284C176.923 209.429 179.765 210.166 182.372 211.45C184.98 212.733 187.298 214.535 189.184 216.747L237.056 266.667L326.4 177.067C330.423 173.181 335.812 171.03 341.406 171.079C346.999 171.128 352.35 173.371 356.305 177.327C360.261 181.282 362.504 186.633 362.553 192.226C362.602 197.82 360.451 203.209 356.565 207.232L356.651 207.296Z" fill="#A73938"/>
</g>
<defs>
<clipPath id="clip0_246_174">
<rect width="512" height="512" fill="white"/>
</clipPath>
</defs>
</svg>
