<svg width="512" height="512" viewBox="0 0 512 512" fill="none" xmlns="http://www.w3.org/2000/svg">
<g clip-path="url(#clip0_246_168)">
<path d="M239.787 512C232.797 511.975 225.897 510.432 219.563 507.477C209.216 502.87 200.906 494.645 196.193 484.347C191.48 474.048 190.687 462.383 193.963 451.541L227.264 341.333H148.8C138.803 341.345 128.943 339.015 120.008 334.53C111.074 330.045 103.315 323.53 97.3527 315.506C91.3902 307.482 87.3903 298.173 85.6735 288.324C83.9567 278.476 84.5708 268.363 87.4665 258.795L151.979 45.4613C155.911 32.2662 164.017 20.7024 175.079 12.5054C186.142 4.30835 199.565 -0.07964 213.333 -3.4327e-05H292.117C301.072 0.00745672 309.892 2.18292 317.823 6.34044C325.754 10.498 332.561 16.5139 337.661 23.8742C342.761 31.2345 346.004 39.7202 347.112 48.6062C348.219 57.4922 347.159 66.5142 344.021 74.9013L308.117 170.667H362.667C374.294 170.666 385.703 173.833 395.666 179.827C405.63 185.822 413.772 194.418 419.218 204.691C424.664 214.965 427.208 226.528 426.577 238.139C425.946 249.749 422.164 260.969 415.637 270.592L279.104 490.325C274.883 496.935 269.073 502.383 262.205 506.169C255.337 509.955 247.629 511.96 239.787 512Z" fill="#A73938"/>
</g>
<defs>
<clipPath id="clip0_246_168">
<rect width="512" height="512" fill="white"/>
</clipPath>
</defs>
</svg>
